<svg xmlns="http://www.w3.org/2000/svg" width="366" height="512" viewBox="0 0 96.8 135" fill="red"><rect transform="scale(1 -1)" y="-135" width="96.8" height="135" ry="5.29" fill="#eee"/><path d="M48.392 52.9l-27.76 33.792 27.76 33.792 27.72-33.792z"/><path d="M20.8 39.2h-5.96V16.7q-3.27 3.05-7.7 4.52v-5.41q2.33-.764 5.07-2.88 2.74-2.14 3.75-4.98h4.84zM34.6 7.94q4.52 0 7.06 3.22 3.03 3.82 3.03 12.7 0 8.82-3.05 12.7-2.52 3.18-7.04 3.18-4.54 0-7.32-3.48-2.78-3.5-2.78-12.4 0-8.78 3.05-12.6 2.52-3.18 7.04-3.18zm0 4.94q-1.08 0-1.93.7-.848.679-1.31 2.46-.615 2.31-.615 7.78 0 5.47.551 7.53.551 2.04 1.38 2.71.848.679 1.93.679 1.08 0 1.93-.679.848-.7 1.31-2.48.615-2.29.615-7.76 0-5.47-.551-7.51-.551-2.06-1.4-2.74-.827-.7-1.91-.7z"/></svg>