<svg xmlns="http://www.w3.org/2000/svg" width="366" height="512" viewBox="0 0 96.8 135"><rect transform="scale(1 -1)" y="-135" width="96.8" height="135" ry="5.29" fill="#eee"/><path d="M54.6 105c2.18 2.11 3.49 3.41 7.4 3.25 5.75-.236 11.1-3.37 14.1-8.3 5.13-8.5 2.33-17-3.14-22.1l-22.3-23.7a3.29 3.29 0 0 0-4.44 0l-22.6 23.7c-5.31 4.93-7.58 13.1-3.14 21.4 2.82 5.25 8.17 8.78 14.1 9.01 3.87.148 5.4-1.15 7.64-3.24a.93.93 0 0 1 1.56.672l.001 3.97c0 2.14-.559 4.24-1.62 6.1l-2.05 3.59c-.444.779.118 1.75 1.01 1.75h14.7c.897 0 1.46-.968 1.01-1.75l-2.05-3.59c-1.06-1.86-1.62-3.96-1.62-6.1v-4.01a.9.9 0 0 1 1.52-.64"/><path d="M20.8 39.2h-5.96V16.7q-3.27 3.05-7.7 4.52v-5.41q2.33-.764 5.07-2.88 2.74-2.14 3.75-4.98h4.84zM34.6 7.94q4.52 0 7.06 3.22 3.03 3.82 3.03 12.7 0 8.82-3.05 12.7-2.52 3.18-7.04 3.18-4.54 0-7.32-3.48-2.78-3.5-2.78-12.4 0-8.78 3.05-12.6 2.52-3.18 7.04-3.18zm0 4.94q-1.08 0-1.93.7-.848.679-1.31 2.46-.615 2.31-.615 7.78 0 5.47.551 7.53.551 2.04 1.38 2.71.848.679 1.93.679 1.08 0 1.93-.679.848-.7 1.31-2.48.615-2.29.615-7.76 0-5.47-.551-7.51-.551-2.06-1.4-2.74-.827-.7-1.91-.7z"/></svg>