<svg xmlns="http://www.w3.org/2000/svg" width="366" height="512" viewBox="0 0 96.8 135"><rect transform="scale(1 -1)" y="-135" width="96.8" height="135" ry="5.29" fill="#eee"/><path d="M70 79.3c-3.53-1.64-6.82-1.68-9.81-.951 2.44-2.89 3.84-6.68 3.62-10.8-.418-7.86-6.96-14.3-14.8-14.6-8.81-.336-16.1 6.7-16.1 15.4 0 3.8 1.37 7.27 3.65 9.96-2.99-.726-6.29-.687-9.81.951-5.43 2.52-9.2 7.86-9.28 13.8-.11 8.63 6.85 15.7 15.4 15.7 4.16 0 7.92-1.65 10.7-4.32v4.55c0 2.18-.569 4.33-1.65 6.22l-2.08 3.65a1.19 1.19 0 0 0 1.03 1.78h14.9a1.19 1.19 0 0 0 1.03-1.78l-2.08-3.65a12.58 12.58 0 0 1-1.65-6.22v-4.55c2.78 2.67 6.54 4.32 10.7 4.32 8.6 0 15.6-7.03 15.4-15.7-.077-5.98-3.85-11.3-9.28-13.8"/><path d="M20.8 39.2h-5.96V16.7q-3.27 3.05-7.7 4.52v-5.41q2.33-.764 5.07-2.88 2.74-2.14 3.75-4.98h4.84zM34.6 7.94q4.52 0 7.06 3.22 3.03 3.82 3.03 12.7 0 8.82-3.05 12.7-2.52 3.18-7.04 3.18-4.54 0-7.32-3.48-2.78-3.5-2.78-12.4 0-8.78 3.05-12.6 2.52-3.18 7.04-3.18zm0 4.94q-1.08 0-1.93.7-.848.679-1.31 2.46-.615 2.31-.615 7.78 0 5.47.551 7.53.551 2.04 1.38 2.71.848.679 1.93.679 1.08 0 1.93-.679.848-.7 1.31-2.48.615-2.29.615-7.76 0-5.47-.551-7.51-.551-2.06-1.4-2.74-.827-.7-1.91-.7z"/></svg>