<svg xmlns="http://www.w3.org/2000/svg" width="366" height="512" viewBox="0 0 96.8 135"><rect transform="scale(1 -1)" y="-135" width="96.8" height="135" ry="5.29" fill="#eee"/><path d="M54.6 105c2.18 2.11 3.49 3.41 7.4 3.25 5.75-.236 11.1-3.37 14.1-8.3 5.13-8.5 2.33-17-3.14-22.1l-22.3-23.7a3.29 3.29 0 0 0-4.44 0l-22.6 23.7c-5.31 4.93-7.58 13.1-3.14 21.4 2.82 5.25 8.17 8.78 14.1 9.01 3.87.148 5.4-1.15 7.64-3.24a.93.93 0 0 1 1.56.672l.001 3.97c0 2.14-.559 4.24-1.62 6.1l-2.05 3.59c-.444.779.118 1.75 1.01 1.75h14.7c.897 0 1.46-.968 1.01-1.75l-2.05-3.59c-1.06-1.86-1.62-3.96-1.62-6.1v-4.01a.9.9 0 0 1 1.52-.64"/><path d="M28.39 34.058v5.63H7.144q.345-3.192 2.071-6.039 1.726-2.869 6.816-7.592 4.098-3.818 5.026-5.177 1.251-1.877 1.251-3.71 0-2.028-1.1-3.106-1.078-1.1-2.998-1.1-1.898 0-3.02 1.143-1.122 1.143-1.294 3.796l-6.039-.604q.539-5.004 3.386-7.183 2.847-2.178 7.118-2.178 4.681 0 7.355 2.524 2.675 2.524 2.675 6.277 0 2.135-.776 4.077-.755 1.92-2.416 4.033-1.1 1.402-3.969 4.033-2.869 2.631-3.645 3.494-.755.863-1.229 1.682z"/></svg>