<svg xmlns="http://www.w3.org/2000/svg" width="366" height="512" viewBox="0 0 96.8 135"><rect transform="scale(1 -1)" y="-135" width="96.8" height="135" ry="5.29" fill="#eee"/><path d="M70 79.3c-3.53-1.64-6.82-1.68-9.81-.951 2.44-2.89 3.84-6.68 3.62-10.8-.418-7.86-6.96-14.3-14.8-14.6-8.81-.336-16.1 6.7-16.1 15.4 0 3.8 1.37 7.27 3.65 9.96-2.99-.726-6.29-.687-9.81.951-5.43 2.52-9.2 7.86-9.28 13.8-.11 8.63 6.85 15.7 15.4 15.7 4.16 0 7.92-1.65 10.7-4.32v4.55c0 2.18-.569 4.33-1.65 6.22l-2.08 3.65a1.19 1.19 0 0 0 1.03 1.78h14.9a1.19 1.19 0 0 0 1.03-1.78l-2.08-3.65a12.58 12.58 0 0 1-1.65-6.22v-4.55c2.78 2.67 6.54 4.32 10.7 4.32 8.6 0 15.6-7.03 15.4-15.7-.077-5.98-3.85-11.3-9.28-13.8"/><path d="M28.39 34.058v5.63H7.144q.345-3.192 2.071-6.039 1.726-2.869 6.816-7.592 4.098-3.818 5.026-5.177 1.251-1.877 1.251-3.71 0-2.028-1.1-3.106-1.078-1.1-2.998-1.1-1.898 0-3.02 1.143-1.122 1.143-1.294 3.796l-6.039-.604q.539-5.004 3.386-7.183 2.847-2.178 7.118-2.178 4.681 0 7.355 2.524 2.675 2.524 2.675 6.277 0 2.135-.776 4.077-.755 1.92-2.416 4.033-1.1 1.402-3.969 4.033-2.869 2.631-3.645 3.494-.755.863-1.229 1.682z"/></svg>