<svg xmlns="http://www.w3.org/2000/svg" width="366" height="512" viewBox="0 0 96.8 135" fill="red"><rect transform="scale(1 -1)" y="-135" width="96.8" height="135" ry="5.29" fill="#eee"/><path d="M48.392 52.9l-27.76 33.792 27.76 33.792 27.72-33.792z"/><path d="M28.39 34.058v5.63H7.144q.345-3.192 2.071-6.039 1.726-2.869 6.816-7.592 4.098-3.818 5.026-5.177 1.251-1.877 1.251-3.71 0-2.028-1.1-3.106-1.078-1.1-2.998-1.1-1.898 0-3.02 1.143-1.122 1.143-1.294 3.796l-6.039-.604q.539-5.004 3.386-7.183 2.847-2.178 7.118-2.178 4.681 0 7.355 2.524 2.675 2.524 2.675 6.277 0 2.135-.776 4.077-.755 1.92-2.416 4.033-1.1 1.402-3.969 4.033-2.869 2.631-3.645 3.494-.755.863-1.229 1.682z"/></svg>