<svg xmlns="http://www.w3.org/2000/svg" width="366" height="512" viewBox="0 0 96.8 135"><rect transform="scale(1 -1)" y="-135" width="96.8" height="135" ry="5.29" fill="#eee"/><path d="M54.6 105c2.18 2.11 3.49 3.41 7.4 3.25 5.75-.236 11.1-3.37 14.1-8.3 5.13-8.5 2.33-17-3.14-22.1l-22.3-23.7a3.29 3.29 0 0 0-4.44 0l-22.6 23.7c-5.31 4.93-7.58 13.1-3.14 21.4 2.82 5.25 8.17 8.78 14.1 9.01 3.87.148 5.4-1.15 7.64-3.24a.93.93 0 0 1 1.56.672l.001 3.97c0 2.14-.559 4.24-1.62 6.1l-2.05 3.59c-.444.779.118 1.75 1.01 1.75h14.7c.897 0 1.46-.968 1.01-1.75l-2.05-3.59c-1.06-1.86-1.62-3.96-1.62-6.1v-4.01a.9.9 0 0 1 1.52-.64"/><path d="M7.14 30.9l5.77-.7q.276 2.21 1.48 3.37 1.21 1.17 2.93 1.17 1.85 0 3.1-1.4 1.27-1.4 1.27-3.78 0-2.25-1.21-3.56-1.21-1.31-2.95-1.31-1.15 0-2.74.445l.657-4.86q2.42.064 3.69-1.04 1.27-1.12 1.27-2.97 0-1.57-.933-2.5-.933-.933-2.48-.933-1.53 0-2.61 1.06-1.08 1.06-1.31 3.1l-5.49-.933q.573-2.82 1.72-4.5 1.17-1.7 3.22-2.65 2.08-.976 4.64-.976 4.39 0 7.04 2.8 2.18 2.29 2.18 5.18 0 4.09-4.48 6.53 2.67.573 4.26 2.57 1.61 1.99 1.61 4.81 0 4.09-2.99 6.98-2.99 2.88-7.44 2.88-4.22 0-7-2.42-2.78-2.44-3.22-6.36z"/></svg>