<svg xmlns="http://www.w3.org/2000/svg" width="366" height="512" viewBox="0 0 96.8 135"><rect transform="scale(1 -1)" y="-135" width="96.8" height="135" ry="5.29" fill="#eee"/><path d="M70 79.3c-3.53-1.64-6.82-1.68-9.81-.951 2.44-2.89 3.84-6.68 3.62-10.8-.418-7.86-6.96-14.3-14.8-14.6-8.81-.336-16.1 6.7-16.1 15.4 0 3.8 1.37 7.27 3.65 9.96-2.99-.726-6.29-.687-9.81.951-5.43 2.52-9.2 7.86-9.28 13.8-.11 8.63 6.85 15.7 15.4 15.7 4.16 0 7.92-1.65 10.7-4.32v4.55c0 2.18-.569 4.33-1.65 6.22l-2.08 3.65a1.19 1.19 0 0 0 1.03 1.78h14.9a1.19 1.19 0 0 0 1.03-1.78l-2.08-3.65a12.58 12.58 0 0 1-1.65-6.22v-4.55c2.78 2.67 6.54 4.32 10.7 4.32 8.6 0 15.6-7.03 15.4-15.7-.077-5.98-3.85-11.3-9.28-13.8"/><path d="M7.14 30.9l5.77-.7q.276 2.21 1.48 3.37 1.21 1.17 2.93 1.17 1.85 0 3.1-1.4 1.27-1.4 1.27-3.78 0-2.25-1.21-3.56-1.21-1.31-2.95-1.31-1.15 0-2.74.445l.657-4.86q2.42.064 3.69-1.04 1.27-1.12 1.27-2.97 0-1.57-.933-2.5-.933-.933-2.48-.933-1.53 0-2.61 1.06-1.08 1.06-1.31 3.1l-5.49-.933q.573-2.82 1.72-4.5 1.17-1.7 3.22-2.65 2.08-.976 4.64-.976 4.39 0 7.04 2.8 2.18 2.29 2.18 5.18 0 4.09-4.48 6.53 2.67.573 4.26 2.57 1.61 1.99 1.61 4.81 0 4.09-2.99 6.98-2.99 2.88-7.44 2.88-4.22 0-7-2.42-2.78-2.44-3.22-6.36z"/></svg>