<svg xmlns="http://www.w3.org/2000/svg" width="366" height="512" viewBox="0 0 96.8 135" fill="red"><rect transform="scale(1 -1)" y="-135" width="96.8" height="135" ry="5.29" fill="#eee"/><path d="M48.4 68.4c2.39-6.08 7.5-10.7 13.8-10.7 5.34 0 9.73 2.82 13.3 6.65 4.75 5.09 6.87 16.8-1.94 25.6l-25.2 26-25.2-26c-8.8-8.8-6.79-20.5-1.94-25.6 3.62-3.79 7.97-6.65 13.3-6.65 6.34 0 11.3 4.65 13.7 10.7"/><path d="M7.14 30.9l5.77-.7q.276 2.21 1.48 3.37 1.21 1.17 2.93 1.17 1.85 0 3.1-1.4 1.27-1.4 1.27-3.78 0-2.25-1.21-3.56-1.21-1.31-2.95-1.31-1.15 0-2.74.445l.657-4.86q2.42.064 3.69-1.04 1.27-1.12 1.27-2.97 0-1.57-.933-2.5-.933-.933-2.48-.933-1.53 0-2.61 1.06-1.08 1.06-1.31 3.1l-5.49-.933q.573-2.82 1.72-4.5 1.17-1.7 3.22-2.65 2.08-.976 4.64-.976 4.39 0 7.04 2.8 2.18 2.29 2.18 5.18 0 4.09-4.48 6.53 2.67.573 4.26 2.57 1.61 1.99 1.61 4.81 0 4.09-2.99 6.98-2.99 2.88-7.44 2.88-4.22 0-7-2.42-2.78-2.44-3.22-6.36z"/></svg>