<svg xmlns="http://www.w3.org/2000/svg" width="366" height="512" viewBox="0 0 96.8 135"><rect transform="scale(1 -1)" y="-135" width="96.8" height="135" ry="5.29" fill="#eee"/><path d="M54.6 105c2.18 2.11 3.49 3.41 7.4 3.25 5.75-.236 11.1-3.37 14.1-8.3 5.13-8.5 2.33-17-3.14-22.1l-22.3-23.7a3.29 3.29 0 0 0-4.44 0l-22.6 23.7c-5.31 4.93-7.58 13.1-3.14 21.4 2.82 5.25 8.17 8.78 14.1 9.01 3.87.148 5.4-1.15 7.64-3.24a.93.93 0 0 1 1.56.672l.001 3.97c0 2.14-.559 4.24-1.62 6.1l-2.05 3.59c-.444.779.118 1.75 1.01 1.75h14.7c.897 0 1.46-.968 1.01-1.75l-2.05-3.59c-1.06-1.86-1.62-3.96-1.62-6.1v-4.01a.9.9 0 0 1 1.52-.64"/><path d="M7.14 31l6.04-.626q.259 2.05 1.53 3.26 1.27 1.19 2.94 1.19 1.9 0 3.22-1.53 1.32-1.55 1.32-4.66 0-2.91-1.32-4.36-1.3-1.47-3.39-1.47-2.61 0-4.68 2.31l-4.92-.712 3.11-16.5h16v5.68h-11.4l-.95 5.37q2.03-1.01 4.14-1.01 4.04 0 6.84 2.94 2.81 2.94 2.81 7.62 0 3.91-2.27 6.97-3.09 4.19-8.57 4.19-4.38 0-7.14-2.35-2.76-2.35-3.3-6.32z"/></svg>