<svg xmlns="http://www.w3.org/2000/svg" width="366" height="512" viewBox="0 0 96.8 135" fill="red"><rect transform="scale(1 -1)" y="-135" width="96.8" height="135" ry="5.29" fill="#eee"/><path d="M48.4 68.4c2.39-6.08 7.5-10.7 13.8-10.7 5.34 0 9.73 2.82 13.3 6.65 4.75 5.09 6.87 16.8-1.94 25.6l-25.2 26-25.2-26c-8.8-8.8-6.79-20.5-1.94-25.6 3.62-3.79 7.97-6.65 13.3-6.65 6.34 0 11.3 4.65 13.7 10.7"/><path d="M7.14 31l6.04-.626q.259 2.05 1.53 3.26 1.27 1.19 2.94 1.19 1.9 0 3.22-1.53 1.32-1.55 1.32-4.66 0-2.91-1.32-4.36-1.3-1.47-3.39-1.47-2.61 0-4.68 2.31l-4.92-.712 3.11-16.5h16v5.68h-11.4l-.95 5.37q2.03-1.01 4.14-1.01 4.04 0 6.84 2.94 2.81 2.94 2.81 7.62 0 3.91-2.27 6.97-3.09 4.19-8.57 4.19-4.38 0-7.14-2.35-2.76-2.35-3.3-6.32z"/></svg>