<svg xmlns="http://www.w3.org/2000/svg" width="366" height="512" viewBox="0 0 96.8 135" fill="red"><rect transform="scale(1 -1)" y="-135" width="96.8" height="135" ry="5.29" fill="#eee"/><path d="M48.4 68.4c2.39-6.08 7.5-10.7 13.8-10.7 5.34 0 9.73 2.82 13.3 6.65 4.75 5.09 6.87 16.8-1.94 25.6l-25.2 26-25.2-26c-8.8-8.8-6.79-20.5-1.94-25.6 3.62-3.79 7.97-6.65 13.3-6.65 6.34 0 11.3 4.65 13.7 10.7"/><path d="M27.335 15.679l-5.769.636q-.212-1.782-1.103-2.63-.891-.848-2.312-.848-1.888 0-3.203 1.697-1.294 1.697-1.633 7.063 2.227-2.63 5.536-2.63 3.733 0 6.384 2.842 2.672 2.842 2.672 7.338 0 4.772-2.8 7.656-2.8 2.884-7.19 2.884-4.708 0-7.741-3.648-3.033-3.669-3.033-12.004 0-8.547 3.16-12.322 3.16-3.775 8.208-3.775 3.542 0 5.854 1.994 2.333 1.972 2.969 5.748zM13.825 28.68q0 2.906 1.336 4.496 1.336 1.569 3.054 1.569 1.654 0 2.757-1.294 1.103-1.294 1.103-4.242 0-3.033-1.188-4.433-1.188-1.421-2.969-1.421-1.718 0-2.906 1.357-1.188 1.336-1.188 3.966z"/></svg>