<svg xmlns="http://www.w3.org/2000/svg" width="366" height="512" viewBox="0 0 96.8 135"><rect transform="scale(1 -1)" y="-135" width="96.8" height="135" ry="5.29" fill="#eee"/><path d="M54.6 105c2.18 2.11 3.49 3.41 7.4 3.25 5.75-.236 11.1-3.37 14.1-8.3 5.13-8.5 2.33-17-3.14-22.1l-22.3-23.7a3.29 3.29 0 0 0-4.44 0l-22.6 23.7c-5.31 4.93-7.58 13.1-3.14 21.4 2.82 5.25 8.17 8.78 14.1 9.01 3.87.148 5.4-1.15 7.64-3.24a.93.93 0 0 1 1.56.672l.001 3.97c0 2.14-.559 4.24-1.62 6.1l-2.05 3.59c-.444.779.118 1.75 1.01 1.75h14.7c.897 0 1.46-.968 1.01-1.75l-2.05-3.59c-1.06-1.86-1.62-3.96-1.62-6.1v-4.01a.9.9 0 0 1 1.52-.64"/><path d="M27.335 15.679l-5.769.636q-.212-1.782-1.103-2.63-.891-.848-2.312-.848-1.888 0-3.203 1.697-1.294 1.697-1.633 7.063 2.227-2.63 5.536-2.63 3.733 0 6.384 2.842 2.672 2.842 2.672 7.338 0 4.772-2.8 7.656-2.8 2.884-7.19 2.884-4.708 0-7.741-3.648-3.033-3.669-3.033-12.004 0-8.547 3.16-12.322 3.16-3.775 8.208-3.775 3.542 0 5.854 1.994 2.333 1.972 2.969 5.748zM13.825 28.68q0 2.906 1.336 4.496 1.336 1.569 3.054 1.569 1.654 0 2.757-1.294 1.103-1.294 1.103-4.242 0-3.033-1.188-4.433-1.188-1.421-2.969-1.421-1.718 0-2.906 1.357-1.188 1.336-1.188 3.966z"/></svg>