<svg xmlns="http://www.w3.org/2000/svg" width="366" height="512" viewBox="0 0 96.8 135"><rect transform="scale(1 -1)" y="-135" width="96.8" height="135" ry="5.29" fill="#eee"/><path d="M70 79.3c-3.53-1.64-6.82-1.68-9.81-.951 2.44-2.89 3.84-6.68 3.62-10.8-.418-7.86-6.96-14.3-14.8-14.6-8.81-.336-16.1 6.7-16.1 15.4 0 3.8 1.37 7.27 3.65 9.96-2.99-.726-6.29-.687-9.81.951-5.43 2.52-9.2 7.86-9.28 13.8-.11 8.63 6.85 15.7 15.4 15.7 4.16 0 7.92-1.65 10.7-4.32v4.55c0 2.18-.569 4.33-1.65 6.22l-2.08 3.65a1.19 1.19 0 0 0 1.03 1.78h14.9a1.19 1.19 0 0 0 1.03-1.78l-2.08-3.65a12.58 12.58 0 0 1-1.65-6.22v-4.55c2.78 2.67 6.54 4.32 10.7 4.32 8.6 0 15.6-7.03 15.4-15.7-.077-5.98-3.85-11.3-9.28-13.8"/><path d="M27.335 15.679l-5.769.636q-.212-1.782-1.103-2.63-.891-.848-2.312-.848-1.888 0-3.203 1.697-1.294 1.697-1.633 7.063 2.227-2.63 5.536-2.63 3.733 0 6.384 2.842 2.672 2.842 2.672 7.338 0 4.772-2.8 7.656-2.8 2.884-7.19 2.884-4.708 0-7.741-3.648-3.033-3.669-3.033-12.004 0-8.547 3.16-12.322 3.16-3.775 8.208-3.775 3.542 0 5.854 1.994 2.333 1.972 2.969 5.748zM13.825 28.68q0 2.906 1.336 4.496 1.336 1.569 3.054 1.569 1.654 0 2.757-1.294 1.103-1.294 1.103-4.242 0-3.033-1.188-4.433-1.188-1.421-2.969-1.421-1.718 0-2.906 1.357-1.188 1.336-1.188 3.966z"/></svg>