<svg xmlns="http://www.w3.org/2000/svg" width="366" height="512" viewBox="0 0 96.8 135"><rect transform="scale(1 -1)" y="-135" width="96.8" height="135" ry="5.29" fill="#eee"/><path d="M54.6 105c2.18 2.11 3.49 3.41 7.4 3.25 5.75-.236 11.1-3.37 14.1-8.3 5.13-8.5 2.33-17-3.14-22.1l-22.3-23.7a3.29 3.29 0 0 0-4.44 0l-22.6 23.7c-5.31 4.93-7.58 13.1-3.14 21.4 2.82 5.25 8.17 8.78 14.1 9.01 3.87.148 5.4-1.15 7.64-3.24a.93.93 0 0 1 1.56.672l.001 3.97c0 2.14-.559 4.24-1.62 6.1l-2.05 3.59c-.444.779.118 1.75 1.01 1.75h14.7c.897 0 1.46-.968 1.01-1.75l-2.05-3.59c-1.06-1.86-1.62-3.96-1.62-6.1v-4.01a.9.9 0 0 1 1.52-.64"/><path d="M12.3 22.4q-2.31-.975-3.37-2.67-1.04-1.72-1.04-3.75 0-3.48 2.42-5.74 2.44-2.27 6.91-2.27 4.43 0 6.87 2.27 2.46 2.27 2.46 5.74 0 2.16-1.12 3.86-1.12 1.67-3.16 2.56 2.59 1.04 3.92 3.03 1.36 1.99 1.36 4.6 0 4.3-2.76 6.99-2.73 2.69-7.29 2.69-4.24 0-7.06-2.23-3.33-2.63-3.33-7.21 0-2.52 1.25-4.62 1.25-2.12 3.94-3.26zm1.23-6q0 1.78.996 2.78 1.02.996 2.69.996 1.7 0 2.71-.996 1.02-1.02 1.02-2.8 0-1.67-1.02-2.67-.996-1.02-2.65-1.02-1.72 0-2.73 1.02-1.02 1.02-1.02 2.69zm-.551 13.3q0 2.46 1.25 3.84 1.27 1.38 3.16 1.38 1.84 0 3.05-1.31 1.21-1.34 1.21-3.84 0-2.18-1.23-3.5-1.23-1.34-3.12-1.34-2.18 0-3.26 1.5-1.06 1.5-1.06 3.26z"/></svg>