<svg xmlns="http://www.w3.org/2000/svg" width="366" height="512" viewBox="0 0 96.8 135" fill="red"><rect transform="scale(1 -1)" y="-135" width="96.8" height="135" ry="5.29" fill="#eee"/><path d="M48.4 68.4c2.39-6.08 7.5-10.7 13.8-10.7 5.34 0 9.73 2.82 13.3 6.65 4.75 5.09 6.87 16.8-1.94 25.6l-25.2 26-25.2-26c-8.8-8.8-6.79-20.5-1.94-25.6 3.62-3.79 7.97-6.65 13.3-6.65 6.34 0 11.3 4.65 13.7 10.7"/><path d="m7.74 32 5.77-0.636q0.212 1.76 1.1 2.61t2.35 0.848q1.84 0 3.14-1.7t1.65-7.04q-2.25 2.61-5.62 2.61-3.67 0-6.34-2.82-2.65-2.84-2.65-7.38 0-4.73 2.8-7.61 2.82-2.9 7.16-2.9 4.73 0 7.76 3.67 3.03 3.65 3.03 12 0 8.52-3.16 12.3-3.16 3.77-8.22 3.77-3.65 0-5.89-1.93-2.25-1.95-2.88-5.81zm13.5-13q0-2.88-1.34-4.47-1.31-1.59-3.05-1.59-1.65 0-2.76 1.31-1.08 1.29-1.08 4.26 0 3.01 1.19 4.43 1.19 1.4 2.97 1.4 1.72 0 2.88-1.36 1.19-1.36 1.19-3.98z"/></svg>