<svg xmlns="http://www.w3.org/2000/svg" width="366" height="512" viewBox="0 0 96.8 135"><rect transform="scale(1 -1)" y="-135" width="96.8" height="135" ry="5.29" fill="#eee"/><path d="M54.6 105c2.18 2.11 3.49 3.41 7.4 3.25 5.75-.236 11.1-3.37 14.1-8.3 5.13-8.5 2.33-17-3.14-22.1l-22.3-23.7a3.29 3.29 0 0 0-4.44 0l-22.6 23.7c-5.31 4.93-7.58 13.1-3.14 21.4 2.82 5.25 8.17 8.78 14.1 9.01 3.87.148 5.4-1.15 7.64-3.24a.93.93 0 0 1 1.56.672l.001 3.97c0 2.14-.559 4.24-1.62 6.1l-2.05 3.59c-.444.779.118 1.75 1.01 1.75h14.7c.897 0 1.46-.968 1.01-1.75l-2.05-3.59c-1.06-1.86-1.62-3.96-1.62-6.1v-4.01a.9.9 0 0 1 1.52-.64"/><path d="m7.74 32 5.77-0.636q0.212 1.76 1.1 2.61t2.35 0.848q1.84 0 3.14-1.7t1.65-7.04q-2.25 2.61-5.62 2.61-3.67 0-6.34-2.82-2.65-2.84-2.65-7.38 0-4.73 2.8-7.61 2.82-2.9 7.16-2.9 4.73 0 7.76 3.67 3.03 3.65 3.03 12 0 8.52-3.16 12.3-3.16 3.77-8.22 3.77-3.65 0-5.89-1.93-2.25-1.95-2.88-5.81zm13.5-13q0-2.88-1.34-4.47-1.31-1.59-3.05-1.59-1.65 0-2.76 1.31-1.08 1.29-1.08 4.26 0 3.01 1.19 4.43 1.19 1.4 2.97 1.4 1.72 0 2.88-1.36 1.19-1.36 1.19-3.98z"/></svg>