<svg xmlns="http://www.w3.org/2000/svg" width="366" height="512" viewBox="0 0 96.8 135" fill="red"><rect transform="scale(1 -1)" y="-135" width="96.8" height="135" ry="5.29" fill="#eee"/><path d="M48.4 68.4c2.39-6.08 7.5-10.7 13.8-10.7 5.34 0 9.73 2.82 13.3 6.65 4.75 5.09 6.87 16.8-1.94 25.6l-25.2 26-25.2-26c-8.8-8.8-6.79-20.5-1.94-25.6 3.62-3.79 7.97-6.65 13.3-6.65 6.34 0 11.3 4.65 13.7 10.7"/><path d="M20.8 7.94h6.28v19.8q0 3.88-.681 5.96-.916 2.73-3.32 4.39-2.41 1.64-6.35 1.64-4.62 0-7.11-2.58-2.49-2.6-2.51-7.6l5.94-.681q.106 2.68.788 3.79 1.02 1.68 3.11 1.68 2.11 0 2.98-1.19.873-1.21.873-5z"/></svg>