<svg xmlns="http://www.w3.org/2000/svg" width="366" height="512" viewBox="0 0 96.8 135"><rect transform="scale(1 -1)" y="-135" width="96.8" height="135" ry="5.29" fill="#eee"/><path d="M70 79.3c-3.53-1.64-6.82-1.68-9.81-.951 2.44-2.89 3.84-6.68 3.62-10.8-.418-7.86-6.96-14.3-14.8-14.6-8.81-.336-16.1 6.7-16.1 15.4 0 3.8 1.37 7.27 3.65 9.96-2.99-.726-6.29-.687-9.81.951-5.43 2.52-9.2 7.86-9.28 13.8-.11 8.63 6.85 15.7 15.4 15.7 4.16 0 7.92-1.65 10.7-4.32v4.55c0 2.18-.569 4.33-1.65 6.22l-2.08 3.65a1.19 1.19 0 0 0 1.03 1.78h14.9a1.19 1.19 0 0 0 1.03-1.78l-2.08-3.65a12.58 12.58 0 0 1-1.65-6.22v-4.55c2.78 2.67 6.54 4.32 10.7 4.32 8.6 0 15.6-7.03 15.4-15.7-.077-5.98-3.85-11.3-9.28-13.8"/><path d="M20.8 7.94h6.28v19.8q0 3.88-.681 5.96-.916 2.73-3.32 4.39-2.41 1.64-6.35 1.64-4.62 0-7.11-2.58-2.49-2.6-2.51-7.6l5.94-.681q.106 2.68.788 3.79 1.02 1.68 3.11 1.68 2.11 0 2.98-1.19.873-1.21.873-5z"/></svg>