<svg xmlns="http://www.w3.org/2000/svg" width="366" height="512" viewBox="0 0 96.8 135" fill="red"><rect transform="scale(1 -1)" y="-135" width="96.8" height="135" ry="5.29" fill="#eee"/><path d="M48.4 68.4c2.39-6.08 7.5-10.7 13.8-10.7 5.34 0 9.73 2.82 13.3 6.65 4.75 5.09 6.87 16.8-1.94 25.6l-25.2 26-25.2-26c-8.8-8.8-6.79-20.5-1.94-25.6 3.62-3.79 7.97-6.65 13.3-6.65 6.34 0 11.3 4.65 13.7 10.7"/><path d="M7.14 39.7V8h6.41v14.1l13-14.1h8.62l-12 12.4 12.6 19.4h-8.29l-8.73-14.9-5.2 5.31v9.59z"/></svg>