<svg xmlns="http://www.w3.org/2000/svg" width="366" height="512" viewBox="0 0 96.8 135"><rect transform="scale(1 -1)" y="-135" width="96.8" height="135" ry="5.29" fill="#eee"/><path d="M70 79.3c-3.53-1.64-6.82-1.68-9.81-.951 2.44-2.89 3.84-6.68 3.62-10.8-.418-7.86-6.96-14.3-14.8-14.6-8.81-.336-16.1 6.7-16.1 15.4 0 3.8 1.37 7.27 3.65 9.96-2.99-.726-6.29-.687-9.81.951-5.43 2.52-9.2 7.86-9.28 13.8-.11 8.63 6.85 15.7 15.4 15.7 4.16 0 7.92-1.65 10.7-4.32v4.55c0 2.18-.569 4.33-1.65 6.22l-2.08 3.65a1.19 1.19 0 0 0 1.03 1.78h14.9a1.19 1.19 0 0 0 1.03-1.78l-2.08-3.65a12.58 12.58 0 0 1-1.65-6.22v-4.55c2.78 2.67 6.54 4.32 10.7 4.32 8.6 0 15.6-7.03 15.4-15.7-.077-5.98-3.85-11.3-9.28-13.8"/><path d="M31.2 33.2q2.11 1.51 4.59 2.4l-2.11 4.05q-1.3-.388-2.54-1.07-.271-.136-3.82-2.52-2.79 1.22-6.18 1.22-6.55 0-10.3-3.86-3.7-3.86-3.7-10.8 0-6.96 3.72-10.8 3.72-3.88 10.1-3.88 6.32 0 10 3.88 3.7 3.86 3.7 10.8 0 3.68-1.03 6.47-.775 2.13-2.48 4.13zm-4.61-3.24q1.1-1.3 1.65-3.14.562-1.84.562-4.23 0-4.92-2.17-7.35-2.17-2.44-5.68-2.44-3.51 0-5.7 2.44-2.17 2.44-2.17 7.35 0 4.98 2.17 7.46 2.19 2.46 5.52 2.46 1.24 0 2.35-.407-1.74-1.14-3.55-1.78l1.61-3.28q2.83.969 5.41 2.91z"/></svg>