<svg xmlns="http://www.w3.org/2000/svg" width="366" height="512" viewBox="0 0 96.8 135" fill="red"><rect transform="scale(1 -1)" y="-135" width="96.8" height="135" ry="5.29" fill="#eee"/><path d="M48.4 68.4c2.39-6.08 7.5-10.7 13.8-10.7 5.34 0 9.73 2.82 13.3 6.65 4.75 5.09 6.87 16.8-1.94 25.6l-25.2 26-25.2-26c-8.8-8.8-6.79-20.5-1.94-25.6 3.62-3.79 7.97-6.65 13.3-6.65 6.34 0 11.3 4.65 13.7 10.7"/><path d="M31.2 33.2q2.11 1.51 4.59 2.4l-2.11 4.05q-1.3-.388-2.54-1.07-.271-.136-3.82-2.52-2.79 1.22-6.18 1.22-6.55 0-10.3-3.86-3.7-3.86-3.7-10.8 0-6.96 3.72-10.8 3.72-3.88 10.1-3.88 6.32 0 10 3.88 3.7 3.86 3.7 10.8 0 3.68-1.03 6.47-.775 2.13-2.48 4.13zm-4.61-3.24q1.1-1.3 1.65-3.14.562-1.84.562-4.23 0-4.92-2.17-7.35-2.17-2.44-5.68-2.44-3.51 0-5.7 2.44-2.17 2.44-2.17 7.35 0 4.98 2.17 7.46 2.19 2.46 5.52 2.46 1.24 0 2.35-.407-1.74-1.14-3.55-1.78l1.61-3.28q2.83.969 5.41 2.91z"/></svg>