<svg xmlns="http://www.w3.org/2000/svg" width="366" height="512" viewBox="0 0 96.8 135"><rect transform="scale(1 -1)" y="-135" width="96.8" height="135" ry="5.29" fill="#eee"/><path d="M54.6 105c2.18 2.11 3.49 3.41 7.4 3.25 5.75-.236 11.1-3.37 14.1-8.3 5.13-8.5 2.33-17-3.14-22.1l-22.3-23.7a3.29 3.29 0 0 0-4.44 0l-22.6 23.7c-5.31 4.93-7.58 13.1-3.14 21.4 2.82 5.25 8.17 8.78 14.1 9.01 3.87.148 5.4-1.15 7.64-3.24a.93.93 0 0 1 1.56.672l.001 3.97c0 2.14-.559 4.24-1.62 6.1l-2.05 3.59c-.444.779.118 1.75 1.01 1.75h14.7c.897 0 1.46-.968 1.01-1.75l-2.05-3.59c-1.06-1.86-1.62-3.96-1.62-6.1v-4.01a.9.9 0 0 1 1.52-.64"/><path d="M31.2 33.2q2.11 1.51 4.59 2.4l-2.11 4.05q-1.3-.388-2.54-1.07-.271-.136-3.82-2.52-2.79 1.22-6.18 1.22-6.55 0-10.3-3.86-3.7-3.86-3.7-10.8 0-6.96 3.72-10.8 3.72-3.88 10.1-3.88 6.32 0 10 3.88 3.7 3.86 3.7 10.8 0 3.68-1.03 6.47-.775 2.13-2.48 4.13zm-4.61-3.24q1.1-1.3 1.65-3.14.562-1.84.562-4.23 0-4.92-2.17-7.35-2.17-2.44-5.68-2.44-3.51 0-5.7 2.44-2.17 2.44-2.17 7.35 0 4.98 2.17 7.46 2.19 2.46 5.52 2.46 1.24 0 2.35-.407-1.74-1.14-3.55-1.78l1.61-3.28q2.83.969 5.41 2.91z"/></svg>